# xmcd
#
# Track frame offsets:
#	150
#	13524
#	28009
#	42946
#	57584
#	72706
#	87111
#	101325
#	116029
#	130675
#	144842
#	163414
#	178314
#	192097
#	206139
#	221578
#	235904
#	250275
#
# Disc length: 3533 seconds
#
# Revision: 0
# Processed by: cddbd v1.5.2PL0 Copyright (c) Steve Scherf et al.
# Submitted via: EasyCDDAExtractor 16.0.6.1
#
DISCID=0c0dcb12
DTITLE=Συλλογικός δίσκος - Το σμυρναίϊκο τραγούδι 1923-1940 4
DYEAR=2009
DGENRE=Σμυρναίϊκη
TTITLE0=Καρίπης Κώστας - Χασικλήδες [1928, παραδοσιακό]
TTITLE1=Εσκενάζυ Ρόζα - Ο ξενητεμένος [1935, Δημ. Σέμσης-Ρ. Εσκενάζυ]
TTITLE2=Ρούκουνας Κώστας ή Σαμιωτάκης - Πολίτισσα Πριγκιπιώτισσα [1931, Παν. Τ
TTITLE2=ούντας]
TTITLE3=Μαρκοπούλου Μαριώ - Για μιά χήρα [1934, Παν. Τούντας]
TTITLE4=Εσκενάζυ Ρόζα - Ο μυλωνάς [1934, Δ. Σέμσης-Στ. Παντελίδης]
TTITLE5=Κασιμάτης Ζαχαρίας - Τεκετζής [1933, Σπύρος Περιστέρης]
TTITLE6=Αμπατζή Ρίτα - Βρε μάγκες δυό στη φυλακή [1934, Κώστας Τζόβενος]
TTITLE7=Εσκενάζυ Ρόζα - Γιατί φουμάρω κοκαΐνη [1932, Παν. Τούντας]
TTITLE8=Πετρόπουλος Χαράλαμπος ή Παναγής - Ελένη μικροπαντρεμένη [1934, Στέλιο
TTITLE8=ς Χρυσίνης]
TTITLE9=Εσκενάζυ Ρόζα - Ο Βορονώφ [1934, Κώστας Σκερβέλης]
TTITLE10=Δραγάτσης Γιάννης ή Ογδοντάκης - Μπουρνοβαλιό συρτό [1933, παραδοσιακ
TTITLE10=ό]
TTITLE11=Αμπατζή Ρίτα - Το φερετζέ [1933, Ρόζα Εσκενάζυ]
TTITLE12=Βιδάλης Γιώργος - Τα ζουμπουλένια μάτια σου [1928, Παν. Τούντας]
TTITLE13=Μαρσέλος Κώστας ή Νούρος - Γιαλέλι [1932,Σώσος Ιωαννίδης]
TTITLE14=Περπινιάδης Στελλάκης - Σ' έχω βαρεθεί [1937, Στ. Παντελίδης]
TTITLE15=Εσκενάζυ Ρόζα - Τσερκέζα [1934, Ρόζα Εσκενάζυ]
TTITLE16=Διαμαντίδης Αντώνης ή Νταλγκάς - Ο μπεκρής [1928, Κώστας Σκαρβέλης]
TTITLE17=Εσκενάζυ Ρόζα - Γιάμο [1934, παραδοσιακό]
EXTD=
EXTT0=
EXTT1=
EXTT2=
EXTT3=
EXTT4=
EXTT5=
EXTT6=
EXTT7=
EXTT8=
EXTT9=
EXTT10=
EXTT11=
EXTT12=
EXTT13=
EXTT14=
EXTT15=
EXTT16=
EXTT17=
PLAYORDER=
